<svg xmlns="http://www.w3.org/2000/svg" viewBox="0 0 188 188"><defs><style>.cls-1{font-size:44px;font-family:AvenirNext-Regular, Avenir Next;}.cls-2{letter-spacing:-0.01em;}.cls-3{letter-spacing:0em;}.cls-4{fill:#f5536e;}</style></defs><title>Asset 3</title><g id="Layer_2" data-name="Layer 2"><g id="Layer_1-2" data-name="Layer 1"><text class="cls-1" transform="translate(44.4 81.67)">Ext<tspan class="cls-2" x="61.29" y="0">r</tspan><tspan class="cls-3" x="76.6" y="0">a</tspan><tspan x="5.52" y="52.8">Grip</tspan></text><path class="cls-4" d="M94,1A93,93,0,1,1,1,94,93.11,93.11,0,0,1,94,1m0-1a94,94,0,1,0,94,94A94,94,0,0,0,94,0Z"/><path class="cls-4" d="M94,1A93,93,0,1,1,1,94,93.11,93.11,0,0,1,94,1m0-1a94,94,0,1,0,94,94A94,94,0,0,0,94,0Z"/><path class="cls-4" d="M94,1A93,93,0,1,1,1,94,93.11,93.11,0,0,1,94,1m0-1a94,94,0,1,0,94,94A94,94,0,0,0,94,0Z"/><path class="cls-4" d="M94,2A92,92,0,1,1,2,94,92.1,92.1,0,0,1,94,2m0-2a94,94,0,1,0,94,94A94,94,0,0,0,94,0Z"/></g></g></svg>